PathFileType	4	(X/Y/Z)	Walk6.trc
DataRate	CameraRate	NumFrames	NumMarkers	Units	OrigDataRate	OrigDataStartFrame	OrigNumFrames
200.000000	200.000000	5	60	mm	200.000000	558	789
Frame#	Times		RCAR		LToe		LTB1		LMT5		LMT1		LTB4		LTB3		LLFC		RWRR		RWRU		RACR1		RFA1		LUA1		LFA1		STRN		LFHD		LACR1		LElbow		LTH2		LCAR		C7		LPSI		RTB2		LASI		LWRU		RPSI		RLFC		CLAV		LWRR		RToe		RTB3		RMT1		RMT5		LTH1		RMFC		RTB1		LMFC		LTH4		LTH3		RCAL		RTB4		RLMAL		LBHD		RTH2		LTB2		RMMAL		RBHD		RBack		RElbow		RTH4		RASI		RTH3		LCAL		RUA1		LMMAL		RTH1		T10		LElbowM		LLMAL		RElbowM
			X1	Y1	Z1	X2	Y2	Z2	X3	Y3	Z3	X4	Y4	Z4	X5	Y5	Z5	X6	Y6	Z6	X7	Y7	Z7	X8	Y8	Z8	X9	Y9	Z9	X10	Y10	Z10	X11	Y11	Z11	X12	Y12	Z12	X13	Y13	Z13	X14	Y14	Z14	X15	Y15	Z15	X16	Y16	Z16	X17	Y17	Z17	X18	Y18	Z18	X19	Y19	Z19	X20	Y20	Z20	X21	Y21	Z21	X22	Y22	Z22	X23	Y23	Z23	X24	Y24	Z24	X25	Y25	Z25	X26	Y26	Z26	X27	Y27	Z27	X28	Y28	Z28	X29	Y29	Z29	X30	Y30	Z30	X31	Y31	Z31	X32	Y32	Z32	X33	Y33	Z33	X34	Y34	Z34	X35	Y35	Z35	X36	Y36	Z36	X37	Y37	Z37	X38	Y38	Z38	X39	Y39	Z39	X40	Y40	Z40	X41	Y41	Z41	X42	Y42	Z42	X43	Y43	Z43	X44	Y44	Z44	X45	Y45	Z45	X46	Y46	Z46	X47	Y47	Z47	X48	Y48	Z48	X49	Y49	Z49	X50	Y50	Z50	X51	Y51	Z51	X52	Y52	Z52	X53	Y53	Z53	X54	Y54	Z54	X55	Y55	Z55	X56	Y56	Z56	X57	Y57	Z57	X58	Y58	Z58	X59	Y59	Z59	X60	Y60	Z60

558	2.79	159.25	801.23	355.71	-21.476	29.429	-82.795	-24.68	341.64	-69.02	-124.49	32.788	-152.95	-76.018	44.13	-65.971	-73.408	272.18	-64.628	-120.32	200.45	-60.961	12.354	490.64	-172.37	180.52	840.01	294.35	107.47	848.02	343.66	172.74	1463.8	190.13	149.18	987.02	315.96	180.26	1319.4	-266.73	262.5	1031.1	-317.14	307.65	1272.3	-7.1551	326.96	1678.2	-22.769	177.26	1503.8	-185.13	160.04	1148.2	-314.52	157.97	698.95	-191.43	333.66	880.76	-328.18	72.144	1530.8	8.2314	15.999	1048.4	-68.751	420.36	289.85	142.17	236.54	1004	-173.63	255.49	898.57	-327.78	15.36	1036	39	320	505.53	170.96	239.88	1442.8	-9.7018	328.2	917.46	-271.39	615.01	70.122	81.376	428.56	206.08	77.278	566	69.067	67.969	528.33	43.452	154.11	125.4	789.9	-226.9	310.47	492.23	21.909	402.57	376.73	85.3	19.526	488.83	-33.858	105.09	706.42	-211.33	84.242	623.62	-195.49	349.94	35.394	80.34	415.35	290.62	80.94	403.36	73.498	122.87	161.71	1671.2	-52.903	269.03	726.59	199.08	-57.027	257.22	-123.5	429.6	106.92	31.692	149.4	1663.2	88.683	9.1102	1405.8	117.82	84.885	1125.5	291.67	216.91	699.65	184.36	235.59	1017.2	146.86	256.44	625.57	176.21	-289.07	108.57	-81.638	140.28	1282.5	256.58	-188.52	124.82	-21.877	177.22	778.68	192.22	32.27	1173.6	-17.494	128.8	1116.3	-230.82	-218.14	109.86	-121.27	64.39	1101.3	200.37
559	2.795	165.31	801.36	356.52	-21.677	29.439	-82.705	-18.743	341.78	-68.756	-123.89	33.751	-152.59	-75.897	44.089	-65.895	-68.588	273.13	-64.406	-116.58	202.1	-60.872	20.457	490.27	-171.79	186.67	840.16	295.19	113.6	848.23	344.46	178.38	1464.3	191.33	155.42	987.23	316.81	185.9	1319.7	-265.43	266.8	1030.7	-315.91	313.65	1272.9	-5.6374	332.95	1678.5	-21.65	183.34	1504.2	-183.94	165.13	1148.5	-312.93	165.48	698.63	-190.35	336.82	879.89	-327.34	78.028	1531.3	9.3228	22.209	1048.4	-68.689	423.91	289.57	142.67	243.39	1004.3	-172.38	258.77	898.23	-326.64	21.374	1036.6	39.308	326.04	506.45	171.81	245.77	1443.2	-8.3849	331.81	916.57	-270.5	615.95	67.188	81.356	430.91	205.7	77.713	566.88	66.871	68.049	528.84	41.69	154.49	132.65	789.47	-225.82	316.04	493.18	22.781	406.79	376.61	85.886	27.55	488.23	-33.682	112.67	705.93	-210.4	92.132	622.97	-194.81	350.3	36.015	80.746	418.63	290.38	81.448	404.32	73.325	123.31	167.69	1671.6	-51.736	275.27	727.7	199.6	-52.472	257.98	-123.3	430.74	106.63	32.116	155.41	1663.7	89.861	14.928	1406.1	118.82	91.171	1125.7	292.48	223.05	700.65	185.17	241.36	1018.1	148.22	262.63	626.62	177.09	-286.65	113.56	-81.623	146.28	1282.8	257.6	-185.96	127.59	-21.827	183.3	779.63	193.12	38.147	1174.1	-17.128	134.01	1116.9	-229.1	-215.85	113.24	-121.21	70.784	1101.5	201.16
560	2.8	171.47	801.62	357.33	-21.921	29.434	-82.622	-12.481	341.96	-68.522	-123.27	34.826	-152.2	-75.751	44.072	-65.805	-63.465	274.18	-64.191	-112.55	203.87	-60.778	28.856	489.91	-171.22	192.91	840.45	296.04	119.82	848.56	345.25	184.03	1464.8	192.52	161.71	987.56	317.66	191.58	1320.2	-264.12	271.06	1030.5	-314.68	319.62	1273.5	-4.1321	338.97	1678.9	-20.522	189.45	1504.7	-182.73	170.22	1149	-311.34	173.13	698.37	-189.28	339.9	879.13	-326.48	83.912	1531.8	10.413	28.398	1048.5	-68.648	427.27	289.27	143.25	250.23	1004.8	-171.15	261.99	898.03	-325.5	27.373	1037.3	39.601	331.85	507.3	172.71	251.67	1443.8	-7.0632	335.34	915.77	-269.6	616.78	64.5	81.441	433.14	205.34	78.214	567.67	64.895	68.219	529.26	40.086	155	139.97	789.09	-224.74	321.55	494.12	23.705	410.87	376.5	86.572	35.95	487.59	-33.521	120.38	705.47	-209.48	100.23	622.34	-194.17	350.64	36.604	81.145	421.78	290.14	82.04	405.19	73.169	123.78	173.68	1672.1	-50.563	281.43	728.83	200.18	-47.661	258.84	-123.12	431.81	106.4	32.583	161.44	1664.3	91.045	20.753	1406.6	119.83	97.464	1126	293.31	229.09	701.67	186.05	247.1	1019	149.59	268.7	627.67	178.06	-283.92	118.85	-81.497	152.29	1283.2	258.61	-183.1	130.53	-21.73	189.31	780.63	194.07	44.008	1174.6	-16.755	139.2	1117.6	-227.39	-213.34	116.84	-121.07	77.197	1101.9	201.95
561	2.805	177.73	801.99	358.13	-22.198	29.407	-82.542	-5.8765	342.18	-68.32	-122.6	36.024	-151.79	-75.564	44.086	-65.7	-58.019	275.31	-63.985	-108.21	205.78	-60.675	37.553	489.55	-170.67	199.24	840.86	296.89	126.13	848.99	346.05	189.69	1465.5	193.71	168.04	988.02	318.52	197.28	1320.8	-262.81	275.29	1030.4	-313.44	325.56	1274.2	-2.6486	344.99	1679.3	-19.389	195.6	1505.4	-181.5	175.3	1149.6	-309.77	180.93	698.16	-188.25	342.89	878.45	-325.62	89.788	1532.3	11.502	34.563	1048.7	-68.611	430.44	288.96	143.9	257.02	1005.3	-169.95	265.13	897.95	-324.38	33.359	1038	39.891	337.4	508.08	173.66	257.56	1444.5	-5.7414	338.8	915.07	-268.68	617.51	62.047	81.59	435.26	205	78.756	568.37	63.128	68.439	529.59	38.641	155.61	147.35	788.76	-223.67	326.95	495.01	24.673	414.8	376.39	87.331	44.74	486.9	-33.375	128.23	705.04	-208.59	108.53	621.71	-193.56	350.96	37.154	81.529	424.8	289.93	82.689	405.98	73.027	124.25	179.69	1672.7	-49.388	287.47	729.96	200.85	-42.576	259.79	-122.97	432.81	106.22	33.071	167.48	1664.9	92.231	26.584	1407.1	120.85	103.76	1126.4	294.14	235.01	702.69	187	252.82	1020.1	150.95	274.62	628.7	179.11	-280.85	124.46	-81.247	158.32	1283.7	259.63	-179.92	133.66	-21.587	195.24	781.65	195.07	49.855	1175.1	-16.363	144.35	1118.4	-225.69	-210.57	120.68	-120.86	83.621	1102.3	202.75
562	2.81	184.09	802.48	358.94	-22.497	29.348	-82.463	1.0828	342.45	-68.15	-121.89	37.355	-151.36	-75.32	44.14	-65.576	-52.233	276.53	-63.791	-103.56	207.81	-60.559	46.545	489.2	-170.13	205.67	841.39	297.74	132.52	849.53	346.83	195.38	1466.2	194.89	174.41	988.59	319.38	203.01	1321.4	-261.5	279.49	1030.3	-312.22	331.47	1275	-1.1958	351.02	1679.7	-18.252	201.78	1506.1	-180.26	180.38	1150.3	-308.22	188.86	698	-187.25	345.83	877.86	-324.74	95.651	1533	12.589	40.702	1048.9	-68.561	433.43	288.64	144.59	263.76	1006	-168.78	268.23	898	-323.27	39.33	1038.8	40.187	342.68	508.76	174.65	263.45	1445.2	-4.4246	342.18	914.46	-267.76	618.17	59.82	81.766	437.25	204.69	79.317	569	61.562	68.673	529.86	37.358	156.28	154.8	788.46	-222.59	332.22	495.84	25.676	418.58	376.27	88.14	53.932	486.15	-33.238	136.21	704.64	-207.71	117.02	621.1	-192.98	351.27	37.661	81.892	427.68	289.71	83.374	406.7	72.898	124.72	185.71	1673.3	-48.212	293.38	731.05	201.59	-37.2	260.83	-122.84	433.73	106.08	33.558	173.52	1665.6	93.417	32.42	1407.7	121.88	110.04	1126.9	294.98	240.78	703.7	188.01	258.53	1021.2	152.29	280.36	629.71	180.21	-277.4	130.35	-80.863	164.35	1284.3	260.65	-176.41	136.94	-21.395	201.07	782.69	196.11	55.694	1175.8	-15.937	149.48	1119.4	-224.01	-207.53	124.74	-120.57	90.046	1102.9	203.55
